<svg xmlns="http://www.w3.org/2000/svg" xmlns:xlink="http://www.w3.org/1999/xlink" width="336" zoomAndPan="magnify" viewBox="0 0 252 143.999998" height="192" preserveAspectRatio="xMidYMid meet" version="1.0"><path fill="#26221e" d="M 15.78125 56.34375 L 56.652344 56.332031 L 56.652344 65.472656 L 24.890625 65.421875 L 24.886719 97.144531 L 15.78125 97.167969 Z M 15.78125 56.34375 " fill-opacity="1" fill-rule="nonzero"/><path fill="#26221e" d="M 14.851562 33.664062 L 14.855469 42.757812 L 57.503906 42.742188 L 57.503906 33.667969 Z M 14.851562 33.664062 " fill-opacity="1" fill-rule="nonzero"/><path fill="#26221e" d="M 65.054688 51.824219 L 75.058594 51.8125 L 75.054688 97.160156 L 65.078125 97.164062 Z M 65.054688 51.824219 " fill-opacity="1" fill-rule="nonzero"/><path fill="#26221e" d="M 101.40625 51.734375 L 101.40625 97.167969 L 110.425781 97.128906 L 110.441406 68.117188 C 110.441406 68.117188 119.527344 60.230469 124.882812 60.875 C 127.761719 61.21875 131.558594 63.253906 134.863281 69.019531 L 134.945312 97.167969 L 143.972656 97.136719 L 143.910156 67.214844 C 143.910156 67.214844 139.070312 51.542969 124.605469 51.898438 C 117.074219 52.085938 110.453125 57.457031 110.453125 57.457031 L 110.433594 51.730469 Z M 101.40625 51.734375 " fill-opacity="1" fill-rule="nonzero"/><path fill="#26221e" d="M 188.539062 77.128906 L 188.425781 33.679688 L 197.519531 33.679688 L 197.632812 78.277344 C 197.632812 78.277344 193.695312 102.597656 165.816406 97.367188 C 165.816406 97.367188 158.277344 94.300781 153.949219 88.417969 C 149.136719 81.875 149.386719 74.09375 151.304688 66.421875 C 151.304688 66.421875 158.488281 46.757812 182.214844 52.804688 L 182.175781 61.890625 C 182.175781 61.890625 168.449219 54.933594 160.773438 68.222656 C 160.773438 68.222656 154.914062 82.1875 169.410156 88.175781 C 169.410156 88.175781 185.164062 91.511719 188.539062 77.128906 Z M 188.539062 77.128906 " fill-opacity="1" fill-rule="nonzero"/><path fill="#26221e" d="M 212.917969 80.835938 L 212.929688 62.707031 L 235.625 62.820312 L 235.613281 53.617188 L 212.910156 53.675781 L 212.9375 42.675781 L 203.84375 42.71875 L 203.867188 78.050781 C 203.867188 78.050781 206.042969 94.867188 221.992188 98.207031 L 235.625 98.035156 L 235.605469 89.035156 L 224.753906 89.082031 C 224.753906 89.082031 217.5625 89.34375 212.972656 78.207031 Z M 212.917969 80.835938 " fill-opacity="1" fill-rule="nonzero"/><path fill="#00bf63" d="M 65.097656 33.714844 L 75.015625 33.714844 L 75.015625 42.714844 L 65.097656 42.714844 Z M 65.097656 33.714844 " fill-opacity="1" fill-rule="nonzero"/><path fill="#26221e" d="M 83.109375 51.792969 L 93.113281 51.777344 L 93.105469 97.128906 L 83.128906 97.132812 Z M 83.109375 51.792969 " fill-opacity="1" fill-rule="nonzero"/><path fill="#00bf63" d="M 83.152344 33.683594 L 93.066406 33.683594 L 93.066406 42.683594 L 83.152344 42.683594 Z M 83.152344 33.683594 " fill-opacity="1" fill-rule="nonzero"/></svg>